<svg version="1.1" preserveAspectRatio="none" xmlns="http://www.w3.org/2000/svg" width="500" height="500" viewBox="0 0 500 500"><rect width="100%" height="100%" fill="#121212" fill-opacity="1"/><svg viewBox="515.267 439.6326 334.6752 56" width="333" height="55.7196947966267" x="83.5px" y="222.1402px" xmlns="http://www.w3.org/2000/svg" xmlns:xlink="http://www.w3.org/1999/xlink" preserveAspectRatio="none"><defs></defs><style>.companyName {fill:#F5F5F5;fill-opacity:1;}.icon3 {fill:#00DCFB;fill-opacity:1;}.icon3-str {stroke:#00DCFB;stroke-opacity:1;}.shapeStroke-str {stroke:#F5F5F5;stroke-opacity:1;}</style><g opacity="1" transform="rotate(0 515.267 489.6326)">
<svg width="334.6752" height="6" x="515.267" y="489.6326" version="1.1" preserveAspectRatio="none" viewBox="0 0 334.6752 6">
  <defs><rect x="0" y="0" width="334.6752" height="6" rx="4%" ry="4%" id="id-UPl23ini1699262316164"></rect></defs><use class="companyName shapeStroke-str" style="stroke-width:0;" xlink:href="#id-UPl23ini1699262316164"></use>
</svg>
</g><g opacity="1" transform="rotate(0 515.267 439.6326)">
<svg width="334.6752" height="40" x="515.267" y="439.6326" version="1.1" preserveAspectRatio="none" viewBox="1.2 -28.8 242.64000000000001 29">
  <g transform="matrix(1 0 0 1 0 0)" class="companyName"><path id="id-D6z1nYkh7" d="M25.56 0.20L1.88 0.20L1.88-5L24.88-4.96Q26.64-4.96 27.58-5.78Q28.52-6.60 28.52-8.44L28.52-8.44Q28.52-10.28 27.58-11.10Q26.64-11.92 24.88-11.92L24.88-11.92L10.56-11.92Q6.12-11.92 3.66-14.06Q1.20-16.20 1.20-20.36L1.20-20.36Q1.20-24.52 3.66-26.66Q6.12-28.80 10.56-28.80L10.56-28.80L33.04-28.80L33.04-23.60L11.24-23.64Q9.52-23.64 8.56-22.86Q7.60-22.08 7.60-20.36L7.60-20.36Q7.60-18.64 8.56-17.86Q9.52-17.08 11.24-17.08L11.24-17.08L25.56-17.08Q30-17.08 32.46-14.90Q34.92-12.72 34.92-8.44L34.92-8.44Q34.92-4.20 32.46-2Q30 0.20 25.56 0.20L25.56 0.20Z M45.32 0L38.92 0L38.92-28.60L45.32-28.60L45.32-16.88L65.48-16.88L65.48-28.60L71.88-28.60L71.88 0L65.48 0L65.48-11.68L45.32-11.68L45.32 0Z M108.84 0L77.48 0L77.48-28.60L108.84-28.60L108.84-23.40L83.88-23.40L83.88-17.08L106.52-17.08L106.52-11.88L83.88-11.88L83.88-5.20L108.84-5.20L108.84 0Z M140.56 0L113.24 0L113.24-28.60L119.64-28.60L119.64-5.20L140.56-5.20L140.56 0Z M141.44-14.12L134.96-14.12L134.96-28.60L170.16-28.60L170.16-14.12L163.68-14.12L163.68-23.40L154.96-23.40L154.96 0L148.56 0L148.56-23.40L141.44-23.40L141.44-14.12Z M206.12 0L174.76 0L174.76-28.60L206.12-28.60L206.12-23.40L181.16-23.40L181.16-17.08L203.80-17.08L203.80-11.88L181.16-11.88L181.16-5.20L206.12-5.20L206.12 0Z M216.92 0L210.52 0L210.52-28.60L234.48-28.60Q238.92-28.60 241.38-26.36Q243.84-24.12 243.84-19.56L243.84-19.56Q243.84-15.68 242.04-13.48Q240.24-11.28 236.92-10.72L236.92-10.72L243.52 0L236.24 0L230.12-10.52L216.92-10.52L216.92 0ZM233.72-23.40L233.72-23.40L216.92-23.40L216.92-15.76L233.72-15.72Q235.48-15.72 236.42-16.60Q237.36-17.48 237.36-19.56L237.36-19.56Q237.36-21.68 236.42-22.54Q235.48-23.40 233.72-23.40Z"/></g>
</svg>
</g><g opacity="1" transform="rotate(0 515.267 489.6326)">
<svg width="73.6286" height="6" x="515.267" y="489.6326" version="1.1" preserveAspectRatio="none" viewBox="0 0 73.6286 6">
  <defs><rect x="0" y="0" width="73.6286" height="6" rx="0px" ry="0px" id="id-o0jQam8yd1699262316164"></rect></defs><use class="icon3 shapeStroke-str" style="stroke-width:0;" xlink:href="#id-o0jQam8yd1699262316164"></use>
</svg>
</g></svg></svg>